# xmcd
#
# Track frame offsets: 
#        150
#        23340
#        44132
#        65248
#        83161
#        112665
#        130114
#        148417
#        165060
#        180135
#        209402
#        222948
#        240069
#        254468
#
# Disc length: 3735 seconds
#
# Revision: 1
# Processed by: cddbd v1.5.2PL0 Copyright (c) Steve Scherf et al.
# Submitted via: ExactAudioCopy v1.0b4
#
DISCID=b60e950e
DTITLE=Michael Katon and The HellTown Blues Band - Blue Tooth (Blues I
DTITLE=Cut My Teeth On)
DYEAR=2014
DGENRE=Blues
TTITLE0=The First Time I Met The Blues
TTITLE1=Feel So Bad
TTITLE2=Thaw Out
TTITLE3=Goin' Down
TTITLE4=Crawlin' King Snake
TTITLE5=Don Somebody Wrong
TTITLE6=If I Had Possession Over Judgement Day
TTITLE7=Cut You Loose
TTITLE8=Shake Your Money Maker
TTITLE9=Rollin' Stone
TTITLE10=Steppin Out
TTITLE11=Forty Four
TTITLE12=Lookin' Good
TTITLE13=Goin' To Brownsville
EXTD=
EXTT0=
EXTT1=
EXTT2=
EXTT3=
EXTT4=
EXTT5=
EXTT6=
EXTT7=
EXTT8=
EXTT9=
EXTT10=
EXTT11=
EXTT12=
EXTT13=
PLAYORDER=
